<svg
	width="0"
	height="0"
	style="display: none"
	xmlns="http://www.w3.org/2000/svg"
>
	<symbol viewBox="0 0 24 24" stroke-width="1.5" id="search">
		<path
			fill="none"
			stroke-linecap="round"
			stroke-linejoin="round"
			d="m21 21-5.197-5.197m0 0A7.5 7.5 0 1 0 5.196 5.196a7.5 7.5 0 0 0 10.607 10.607Z"
		/>
	</symbol>

	<symbol viewBox="0 0 100 100" id="vk">
		<path
			fill-rule="evenodd"
			d="M50 100c27.614 0 50-22.386 50-50S77.614 0 50 0 0 22.386 0 50s22.386 50 50 50ZM25 34c.406 19.488 10.15 31.2 27.233 31.2h.968V54.05c6.278.625 11.024 5.216 12.93 11.15H75c-2.436-8.87-8.838-13.773-12.836-15.647C66.162 47.242 71.783 41.62 73.126 34h-8.058c-1.749 6.184-6.932 11.805-11.867 12.336V34h-8.057v21.611C40.147 54.362 33.838 48.304 33.556 34H25Z"
		></path>
	</symbol>

	<symbol viewBox="0 0 100 100" id="telegram">
		<path
			fill-rule="evenodd"
			d="M50 100c27.614 0 50-22.386 50-50S77.614 0 50 0 0 22.386 0 50s22.386 50 50 50Zm21.977-68.056c.386-4.38-4.24-2.576-4.24-2.576-3.415 1.414-6.937 2.85-10.497 4.302-11.04 4.503-22.444 9.155-32.159 13.734-5.268 1.932-2.184 3.864-2.184 3.864l8.351 2.577c3.855 1.16 5.91-.129 5.91-.129l17.988-12.238c6.424-4.38 4.882-.773 3.34.773l-13.49 12.882c-2.056 1.804-1.028 3.35-.129 4.123 2.55 2.249 8.82 6.364 11.557 8.16.712.467 1.185.778 1.292.858.642.515 4.111 2.834 6.424 2.319 2.313-.516 2.57-3.479 2.57-3.479l3.083-20.226c.462-3.511.993-6.886 1.417-9.582.4-2.546.705-4.485.767-5.362Z"
		></path>
	</symbol>

	<symbol viewBox="0 0 20 20" id="github">
		<g transform="translate(-140.000000, -7559.000000)">
			<g transform="translate(56.000000, 160.000000)">
				<path
					d="M94,7399 C99.523,7399 104,7403.59 104,7409.253 C104,7413.782 101.138,7417.624 97.167,7418.981 C96.66,7419.082 96.48,7418.762 96.48,7418.489 C96.48,7418.151 96.492,7417.047 96.492,7415.675 C96.492,7414.719 96.172,7414.095 95.813,7413.777 C98.04,7413.523 100.38,7412.656 100.38,7408.718 C100.38,7407.598 99.992,7406.684 99.35,7405.966 C99.454,7405.707 99.797,7404.664 99.252,7403.252 C99.252,7403.252 98.414,7402.977 96.505,7404.303 C95.706,7404.076 94.85,7403.962 94,7403.958 C93.15,7403.962 92.295,7404.076 91.497,7404.303 C89.586,7402.977 88.746,7403.252 88.746,7403.252 C88.203,7404.664 88.546,7405.707 88.649,7405.966 C88.01,7406.684 87.619,7407.598 87.619,7408.718 C87.619,7412.646 89.954,7413.526 92.175,7413.785 C91.889,7414.041 91.63,7414.493 91.54,7415.156 C90.97,7415.418 89.522,7415.871 88.63,7414.304 C88.63,7414.304 88.101,7413.319 87.097,7413.247 C87.097,7413.247 86.122,7413.234 87.029,7413.87 C87.029,7413.87 87.684,7414.185 88.139,7415.37 C88.139,7415.37 88.726,7417.2 91.508,7416.58 C91.513,7417.437 91.522,7418.245 91.522,7418.489 C91.522,7418.76 91.338,7419.077 90.839,7418.982 C86.865,7417.627 84,7413.783 84,7409.253 C84,7403.59 88.478,7399 94,7399"
				></path>
			</g>
		</g>
	</symbol>

	<symbol viewBox="0 0 512 512" id="email">
		<path
			d="M256,0C114.615,0,0,114.615,0,256s114.615,256,256,256s256-114.615,256-256S397.385,0,256,0z M412,353.5   c0,20.193-16.37,36.562-36.562,36.562H136.562c-20.193,0-36.562-16.37-36.562-36.562v-195c0-20.193,16.37-36.562,36.562-36.562   h238.875c20.193,0,36.562,16.37,36.562,36.562V353.5z"
		/>
		<path
			d="M334.463,166.703L256,212.004l-78.463-45.301c-8.744-5.048-19.924-2.052-24.973,6.691   c-5.048,8.744-2.052,19.924,6.691,24.973l87.604,50.578l0.001-0.002c2.777,1.6,5.936,2.443,9.139,2.448   c3.204-0.004,6.363-0.848,9.139-2.448l0.001,0.002l87.604-50.578c8.744-5.048,11.74-16.229,6.691-24.973   C354.388,164.651,343.207,161.655,334.463,166.703z"
		/>
	</symbol>
</svg>
